<svg xmlns="http://www.w3.org/2000/svg" viewBox="0 0 24 24" role="img" aria-hidden="true">
  <path fill="currentColor" d="M16.9 12.6c0-2.1 1.7-3.1 1.8-3.2-1-.1-2-.6-2.6-1.5-.6-.9-1.5-1.5-2.5-1.5-1.1 0-2.1.7-2.6.7-.6 0-1.5-.6-2.5-.6-1.3 0-2.5.8-3.2 2-1.4 2.4-.4 6 1 8 .7 1 1.5 2.1 2.6 2.1 1 0 1.4-.6 2.6-.6 1.2 0 1.5.6 2.6.6 1.1 0 1.8-1 2.5-2 .8-1.1 1.1-2.2 1.1-2.3-.1 0-2.2-.8-2.2-3.3z"/>
  <path fill="currentColor" d="M14.8 4.2c.5-.6.9-1.5.8-2.3-.8 0-1.7.5-2.2 1.1-.5.6-.9 1.5-.8 2.4.9.1 1.7-.4 2.2-1.2z"/>
</svg>
